
<svg width="60px" height="34px" viewBox="0 0 60 34" version="1.1" xmlns="http://www.w3.org/2000/svg" xmlns:xlink="http://www.w3.org/1999/xlink">
    <g id="Welcome" stroke="none" stroke-width="1" fill="none" fill-rule="evenodd">
        <g id="ACLogo" transform="translate(-60.000000, -50.000000)" fill="#000000">
            <g id="Logo" transform="translate(60.000000, 47.000000)">
                <g id="Group-5" transform="translate(0.000000, 3.000000)">
                    <path d="M21.2373225,21.7422066 C21.2373225,23.4676563 20.5772481,24.862901 19.2596349,25.930507 C17.9411765,26.9989684 16.1866126,27.5327714 13.9959432,27.5327714 C12.4940838,27.5327714 11.2770453,27.1828909 10.3448276,26.4848409 C9.41091954,25.7876462 8.94523327,24.8013083 8.94523327,23.5283935 L8.94523327,23.4052082 C8.94523327,21.9269845 9.51233942,20.7977859 10.6490872,20.0167568 C11.7841447,19.2382941 13.346856,18.8473519 15.3346856,18.8473519 C16.4697431,18.8473519 17.5346518,18.9611272 18.5294118,19.1861115 C19.5224814,19.4119512 20.4251183,19.709649 21.2373225,20.0792049 L21.2373225,21.7422066 Z M27.5245098,23.6832306 C26.6725828,21.6096113 26.2466193,19.4016857 26.2466193,17.0611649 L26.2466193,16.9379796 C26.2466193,14.5966033 26.6725828,12.3801233 27.5245098,10.2859731 C27.9149763,9.32700969 28.3815078,8.43134986 28.9072008,7.58530633 C28.3384043,6.07970814 27.5371873,4.77514153 26.4705882,3.69555919 C25.2932725,2.5047679 23.8024003,1.59199899 21.9979716,0.954686124 C20.1918526,0.318228708 18.0121704,0 15.4563895,0 C12.6969236,0 10.3448276,0.246370613 8.39756592,0.739111838 C6.45030426,1.23185306 4.58333333,1.86916593 2.79918864,2.64848409 L5.11156187,9.79323185 C6.6117309,9.21836709 8.04175118,8.77695308 9.40162272,8.46898981 C10.7606491,8.16102654 12.331812,8.00704491 14.1176471,8.00704491 C16.4300203,8.00704491 18.173597,8.52031702 19.3509128,9.54686124 C20.5265382,10.5734055 21.1156187,12.07216 21.1156187,14.0431249 L21.1156187,14.5966033 C19.9383029,14.1876966 18.7322515,13.858347 17.494929,13.6119763 C16.2567613,13.3656057 14.8073022,13.241565 13.1440162,13.241565 C11.1967546,13.241565 9.42190669,13.4571393 7.81947262,13.8882878 C6.21619337,14.3194364 4.83772819,14.9670147 3.68154158,15.8293119 C2.52535497,16.691609 1.62187289,17.7797459 0.973630832,19.092867 C0.323698445,20.4076991 0,21.9689017 0,23.7747641 L0,23.8988049 C0,25.5404202 0.293272481,26.9878475 0.882352941,28.2402315 C1.46974307,29.4934709 2.27180527,30.549956 3.28600406,31.4122531 C4.29935767,32.2745503 5.48597025,32.9204177 6.84584178,33.3515662 C8.20486815,33.7827148 9.65432725,34 11.1967546,34 C13.4685598,34 15.3955375,33.6193232 16.9776876,32.8605359 C18.5598377,32.1000377 19.9180189,31.0846144 21.0547667,29.8116996 L21.0547667,33.383218 L30,33.383218 L30,27.9100264 C28.9908722,26.6516543 28.1659905,25.2435778 27.5245098,23.6832306 L27.5245098,23.6832306 Z" id="Fill-1"></path>
                    <path d="M46.3674699,34 C43.87751,34 41.5639224,33.5540012 39.4267068,32.6594648 C37.2894913,31.766621 35.4522813,30.5581083 33.9176707,29.0347729 C32.3821954,27.5105912 31.1787149,25.7240572 30.3072289,23.6726322 C29.435743,21.6212072 29,19.4377598 29,17.12229 L29,16.9995769 C29,14.6849533 29.435743,12.4913503 30.3072289,10.4196142 C31.1787149,8.34703174 32.3821954,6.54103298 33.9176707,4.99654014 C35.4522813,3.45289359 37.2894913,2.23422526 39.4267068,1.34053516 C41.5639224,0.44769135 43.9181448,0 46.4919679,0 C49.645917,0 52.2595103,0.48746733 54.3353414,1.46240199 C56.4103079,2.43733665 58.2362784,3.77787181 59.813253,5.48400747 L54.0240964,11.5773491 C52.9442492,10.4797013 51.8350067,9.60716864 50.6937751,8.9572122 C49.5525435,8.30810205 48.1311914,7.98227754 46.4297189,7.98227754 C45.2253737,7.98227754 44.1360163,8.21670193 43.1616466,8.68301182 C42.1864123,9.15016801 41.3348115,9.78996889 40.6094378,10.6024144 C39.8831995,11.41486 39.3229585,12.3601742 38.9287149,13.4358183 C38.5336066,14.5123086 38.3373494,15.6590417 38.3373494,16.8785563 L38.3373494,16.9995769 C38.3373494,18.2588675 38.5336066,19.4377598 38.9287149,20.5345613 C39.3229585,21.6313628 39.8935743,22.5868326 40.6405622,23.3984319 C41.3875502,24.2117237 42.2797858,24.8506783 43.3172691,25.3169882 C44.3538878,25.7849907 45.5167336,26.0177225 46.8032129,26.0177225 C48.3801874,26.0177225 49.7600402,25.7037461 50.9427711,25.0741008 C52.125502,24.4444555 53.2978581,23.6015432 54.4598394,22.545364 L60,28.0293715 C58.3815261,29.7769757 56.5348059,31.2080647 54.4598394,32.3251773 C52.3840083,33.4414437 49.6874163,34 46.3674699,34" id="Fill-3"></path>
                </g>
            </g>
        </g>
    </g>
</svg>